<svg xmlns="http://www.w3.org/2000/svg" version="1.1" xmlns:xlink="http://www.w3.org/1999/xlink" xmlns:svgjs="http://svgjs.dev/svgjs" width="1500" height="935" viewBox="0 0 1500 935"><g transform="matrix(1,0,0,1,-0.9090909090909918,0.3785425101214628)"><svg viewBox="0 0 396 247" data-background-color="#fefbf6" preserveAspectRatio="xMidYMid meet" height="935" width="1500" xmlns="http://www.w3.org/2000/svg" xmlns:xlink="http://www.w3.org/1999/xlink"><g id="tight-bounds" transform="matrix(1,0,0,1,0.2400000000000091,-0.09999999999999432)"><svg viewBox="0 0 395.52 247.2" height="247.2" width="395.52"><g><svg></svg></g><g><svg viewBox="0 0 395.52 247.2" height="247.2" width="395.52"><g transform="matrix(1,0,0,1,75.54432,102.04533434679334)"><svg viewBox="0 0 244.43135999999998 43.109331306413296" height="43.109331306413296" width="244.43135999999998"><g><svg viewBox="0 0 244.43135999999998 43.109331306413296" height="43.109331306413296" width="244.43135999999998"><g><svg viewBox="0 0 244.43136 43.1093313064133" height="43.109331306413296" width="244.43135999999998"><g><svg viewBox="0 0 244.43136 43.1093313064133" height="43.1093313064133" width="244.43136"><g id="textblocktransform"><svg viewBox="0 0 244.43136 43.1093313064133" height="43.1093313064133" width="244.43136" id="textblock"><g><svg viewBox="0 0 244.43136 43.1093313064133" height="43.1093313064133" width="244.43136"><g transform="matrix(1,0,0,1,0,0)"><svg width="244.43136" viewBox="2.56 -35.64 205.55 36.25" height="43.1093313064133" data-palette-color="#29231d"><path d="M25.63 0L25.63 0 21.12 0Q21.12 0 21.12-1.05 21.12-2.1 21.12-3.76 21.12-5.42 21.12-7.28 21.12-9.13 21.12-10.78 21.12-12.43 21.12-13.43L21.12-13.43Q21.12-16.48 20.58-18.15 20.04-19.82 18.97-20.47 17.9-21.12 16.24-21.12L16.24-21.12Q14.48-21.12 12.87-20.07 11.25-19.02 10.05-17.42 8.84-15.82 8.3-14.16L8.3-14.16 8.3 0 3.78 0Q3.78 0 3.78-1.09 3.78-2.17 3.78-3.91 3.78-5.64 3.78-7.68 3.78-9.72 3.78-11.66 3.78-13.6 3.78-15.01L3.78-15.01Q3.78-18.6 3.38-21.12 2.98-23.63 2.56-24.9L2.56-24.9 6.96-24.9Q7.15-24.39 7.34-23.49 7.52-22.58 7.69-21.66 7.86-20.73 7.93-20.14L7.93-20.14Q10.25-22.92 12.62-24.16 14.99-25.39 17.58-25.39L17.58-25.39Q21.48-25.39 23.56-22.84 25.63-20.29 25.63-15.26L25.63-15.26Q25.63-14.04 25.63-12.15 25.63-10.25 25.63-8.15 25.63-6.05 25.63-4.2 25.63-2.34 25.63-1.17 25.63 0 25.63 0ZM31.25-12.33L31.25-12.33Q31.25-16.53 32.87-19.45 34.49-22.36 37.19-23.88 39.89-25.39 43.09-25.39L43.09-25.39Q46.46-25.39 49.01-23.88 51.56-22.36 53-19.45 54.44-16.53 54.44-12.33L54.44-12.33Q54.44-8.13 52.82-5.25 51.19-2.37 48.51-0.88 45.82 0.61 42.6 0.61L42.6 0.61Q39.26 0.61 36.69-0.88 34.13-2.37 32.69-5.25 31.25-8.13 31.25-12.33ZM35.76-12.33L35.76-12.33Q35.76-8.06 37.73-5.68 39.69-3.3 42.84-3.3L42.84-3.3Q45.8-3.3 47.86-5.68 49.92-8.06 49.92-12.33L49.92-12.33Q49.92-16.63 47.96-19.06 45.99-21.48 42.84-21.48L42.84-21.48Q39.89-21.48 37.83-19.06 35.76-16.63 35.76-12.33ZM75.31-5.25L75.31-5.25 75.31-1.34Q73.63-0.27 72.09 0.17 70.55 0.61 69.26 0.61L69.26 0.61Q67.35 0.61 65.79-0.01 64.23-0.63 63.3-2.21 62.37-3.78 62.37-6.59L62.37-6.59Q62.37-7.47 62.37-9.47 62.37-11.47 62.37-14.2 62.37-16.92 62.37-20.03 62.37-23.14 62.37-26.29 62.37-29.44 62.37-32.23L62.37-32.23 66.89-32.23Q66.89-29.1 66.89-25.55 66.89-22 66.89-18.68 66.89-15.36 66.89-12.9 66.89-10.45 66.89-9.52L66.89-9.52Q66.89-7.01 67.22-5.69 67.55-4.37 68.23-3.89 68.92-3.42 70.01-3.42L70.01-3.42Q72.02-3.42 75.31-5.25ZM74.82-24.29L74.82-20.75 57.49-20.75 57.49-24.29 74.82-24.29ZM101.29-11.84L101.29-11.84 83.12-11.84 83.12-15.26 96.92-15.26Q96.92-18.41 95.2-20.07 93.47-21.73 90.81-21.73L90.81-21.73Q87.61-21.73 85.8-19.46 83.98-17.19 83.98-12.33L83.98-12.33Q83.98-7.81 86.19-5.62 88.4-3.42 91.79-3.42L91.79-3.42Q94.16-3.42 96.44-3.97 98.72-4.52 100.94-5.86L100.94-5.86 101.43-1.83Q98.85-0.49 96.43 0.06 94.01 0.61 91.18 0.61L91.18 0.61Q88.08 0.61 85.41-0.83 82.73-2.27 81.1-5.1 79.46-7.93 79.46-12.08L79.46-12.08Q79.46-16.14 80.89-19.12 82.32-22.09 84.94-23.74 87.57-25.39 91.18-25.39L91.18-25.39Q94.21-25.39 96.17-24.37 98.14-23.34 99.26-21.63 100.38-19.92 100.85-17.86 101.31-15.8 101.31-13.75L101.31-13.75Q101.31-13.43 101.31-12.81 101.31-12.18 101.29-11.84ZM112.78-31.62L112.78-20.63 126.7-20.63 126.7-16.72 112.78-16.72 112.78-4.03 119.23-4.03Q122.84-4.03 125.32-4.09 127.8-4.15 129.26-4.39L129.26-4.39 129.26 0 107.78 0Q108.05-1.46 108.1-4.24 108.14-7.01 108.14-10.62L108.14-10.62 108.14-25.02Q108.14-28.64 108.1-31.41 108.05-34.18 107.78-35.64L107.78-35.64 128.53-35.64 128.53-31.62 112.78-31.62ZM157.95 0L157.95 0 153.67 0Q153.33-0.78 153.08-2.28 152.82-3.78 152.7-5.38 152.58-6.98 152.58-8.06L152.58-8.06 152.58-10.01Q151.62-7.5 150.13-5.04 148.64-2.59 146.64-0.99 144.64 0.61 142.08 0.61L142.08 0.61Q139 0.61 136.88-2.11 134.75-4.83 134.75-10.01L134.75-10.01Q134.75-12.92 135.53-15.66 136.32-18.41 137.93-20.61 139.54-22.8 142.03-24.1 144.52-25.39 147.94-25.39L147.94-25.39Q150.3-25.39 152.4-25.09 154.5-24.78 156.36-24.29L156.36-24.29 156.36-12.94Q156.36-8.33 156.8-5.19 157.24-2.05 157.95 0ZM151.84-17.94L151.84-17.94 151.84-21.04Q151.23-21.19 150.32-21.34 149.4-21.48 147.57-21.48L147.57-21.48Q144.4-21.48 142.58-19.84 140.76-18.19 140.01-15.58 139.27-12.96 139.27-10.01L139.27-10.01Q139.27-7.18 140.32-5.36 141.37-3.54 142.81-3.54L142.81-3.54Q144.1-3.54 145.4-4.68 146.69-5.81 147.85-7.6 149.01-9.4 149.9-11.39 150.79-13.38 151.32-15.14 151.84-16.89 151.84-17.94ZM180.65-23.44L180.65-23.44 179.79-19.17Q178.57-19.87 176.72-20.68 174.86-21.48 172.59-21.48L172.59-21.48Q169.91-21.48 168.87-20.45 167.83-19.41 167.83-18.31L167.83-18.31Q167.83-17.46 168.23-16.86 168.64-16.26 169.88-15.75 171.13-15.23 173.69-14.65L173.69-14.65Q175.91-14.16 177.73-13.28 179.55-12.4 180.65-10.94 181.75-9.47 181.75-7.2L181.75-7.2Q181.75-5 180.49-3.23 179.23-1.46 177.11-0.43 174.99 0.61 172.35 0.61L172.35 0.61Q169.39 0.61 166.89-0.23 164.39-1.07 162.95-2.2L162.95-2.2 164.17-6.59Q165.83-5.1 168.19-4.2 170.54-3.3 172.47-3.3L172.47-3.3Q174.62-3.3 175.99-4.31 177.35-5.32 177.35-6.59L177.35-6.59Q177.35-7.52 176.82-8.29 176.28-9.06 174.83-9.75 173.37-10.45 170.64-11.11L170.64-11.11Q167.69-11.84 166.12-12.89 164.56-13.94 164-15.25 163.44-16.55 163.44-18.07L163.44-18.07Q163.44-18.92 163.88-20.14 164.32-21.36 165.35-22.57 166.39-23.78 168.22-24.58 170.05-25.39 172.84-25.39L172.84-25.39Q175.5-25.39 177.44-24.77 179.38-24.15 180.65-23.44ZM207.97-11.84L207.97-11.84 189.8-11.84 189.8-15.26 203.6-15.26Q203.6-18.41 201.87-20.07 200.15-21.73 197.49-21.73L197.49-21.73Q194.29-21.73 192.48-19.46 190.66-17.19 190.66-12.33L190.66-12.33Q190.66-7.81 192.87-5.62 195.08-3.42 198.47-3.42L198.47-3.42Q200.84-3.42 203.12-3.97 205.4-4.52 207.62-5.86L207.62-5.86 208.11-1.83Q205.52-0.49 203.11 0.06 200.69 0.61 197.86 0.61L197.86 0.61Q194.76 0.61 192.08-0.83 189.41-2.27 187.78-5.1 186.14-7.93 186.14-12.08L186.14-12.08Q186.14-16.14 187.57-19.12 189-22.09 191.62-23.74 194.25-25.39 197.86-25.39L197.86-25.39Q200.89-25.39 202.85-24.37 204.82-23.34 205.94-21.63 207.06-19.92 207.53-17.86 207.99-15.8 207.99-13.75L207.99-13.75Q207.99-13.43 207.99-12.81 207.99-12.18 207.97-11.84Z" opacity="1" transform="matrix(1,0,0,1,0,0)" fill="#29231d" class="wordmark-text-0" data-fill-palette-color="primary" id="text-0"></path></svg></g></svg></g></svg></g></svg></g></svg></g></svg></g></svg></g><g><path d="M245.816 0c68.262 0 123.6 55.338 123.6 123.6 0 68.262-55.338 123.6-123.6 123.6-59.115 0-108.537-41.501-120.721-96.957h1.991c12.148 54.374 60.693 95.013 118.73 95.013 67.189 0 121.656-54.467 121.656-121.656 0-67.189-54.467-121.656-121.656-121.656-58.037 0-106.581 40.639-118.73 95.013l-1.991 0c12.184-55.456 61.606-96.957 120.721-96.957z" fill="#29231d" stroke="transparent" data-fill-palette-color="tertiary"></path></g></svg></g><defs></defs></svg><rect width="395.52" height="247.2" fill="none" stroke="none" visibility="hidden"></rect></g></svg></g></svg>